# xmcd
#
# Track frame offsets:
#	150
#	19199
#	40222
#	58745
#	75413
#	90858
#	108932
#	126883
#	143544
#	159710
#	171416
#	191642
#	210318
#	231672
#	248109
#	265536
#
# Disc length: 3785 seconds
#
# Revision: 0
# Processed by: cddbd v1.5.2PL0 Copyright (c) Steve Scherf et al.
# Submitted via: audiograbber 1.83.01
#
DISCID=cf0ec710
DTITLE=Blue Rose - Blue Rose Nuggets 48
DYEAR=2008
DGENRE=Rock
TTITLE0=The Band Of Heathens - Medicine Man
TTITLE1=Stacie Collins - Little Things
TTITLE2=Easton Stagger Phillips - Festival Song
TTITLE3=Buddy Miller - Why Baby Why
TTITLE4=Todd Thibaud - Drifting
TTITLE5=Todd Thibaud - You And Me
TTITLE6=Stuart Davis - Noah's New Ark
TTITLE7=Markus Rill - Wild Blue True-Hearted Man
TTITLE8=Jason Ringenberg - Broken Whiskey Glass
TTITLE9=The Volebeats - Feel The Same
TTITLE10=David Lowery - Raise 'Em Up On Honey
TTITLE11=Hank Shizzoe and Band - Shape I'm In
TTITLE12=Jimmy Lafave - The Big Wheels
TTITLE13=The Baseball Projekt - 1976
TTITLE14=Parsons Thibaud - Dume Room
TTITLE15=Willie Nile - When The Last Light Goes Out On Broadway
EXTD=
EXTT0=
EXTT1=
EXTT2=
EXTT3=
EXTT4=
EXTT5=
EXTT6=
EXTT7=
EXTT8=
EXTT9=
EXTT10=
EXTT11=
EXTT12=
EXTT13=
EXTT14=
EXTT15=
PLAYORDER=
